<?xml version="1.0" encoding="UTF-8"?>
<svg version="1.1" xmlns="http://www.w3.org/2000/svg" width="376" height="333">
<path d="M0 0 C11.56176612 -0.09291128 23.1234426 -0.1638721 34.68550682 -0.20724869 C40.05495825 -0.22807324 45.42415319 -0.25629689 50.79345703 -0.30175781 C55.98061246 -0.34539886 61.16752203 -0.36917567 66.35484695 -0.37950897 C68.32829276 -0.38686765 70.30172597 -0.40123711 72.27506638 -0.42292023 C95.23900271 -0.66508443 95.23900271 -0.66508443 103.125 6.625 C105 9 105 9 105 11 C105.66 11 106.32 11 107 11 C110.96092423 18.34571403 114.88023881 25.69744599 118.5625 33.1875 C120.70760105 37.52138062 122.96045883 41.72231333 125.4375 45.875 C128.13781521 50.40960505 130.55348464 55.0157282 132.875 59.75 C135.58308078 65.27155999 138.44445125 70.66293123 141.5 76 C144.4954987 81.23988537 147.32994961 86.52431997 150 91.9375 C155.86321487 103.82345328 162.14042538 115.47027963 168.5625 127.0625 C172.20079652 133.63484604 175.69295414 140.25151154 179.01196289 146.99023438 C181.59421831 152.22430534 184.27726787 157.40019164 187 162.5625 C187.62733032 163.7537146 187.62733032 163.7537146 188.26733398 164.96899414 C190.29240776 168.80384231 192.3357441 172.62732154 194.4140625 176.43359375 C194.78789062 177.12187256 195.16171875 177.81015137 195.546875 178.51928711 C196.24707307 179.80567908 196.95251545 181.08923538 197.6640625 182.36938477 C199.17444781 185.14747108 200 186.7814795 200 190 C200.66 190 201.32 190 202 190 C202.67482422 191.38445312 202.67482422 191.38445312 203.36328125 192.796875 C207.65251415 201.52073853 212.19822366 210.0654051 216.92431641 218.56005859 C220.16288895 224.40701319 223.21529711 230.3175057 226.13696289 236.32836914 C228.04282505 240.21177958 230.11117466 243.93154469 232.3527832 247.63085938 C239.27217144 259.15538627 239.27217144 259.15538627 238 265 C236.12600418 269.69066832 233.79976325 274.05627154 231.36865234 278.47851562 C229.29552824 282.29785664 227.32697748 286.16981175 225.34277344 290.03588867 C223.13093299 294.33070865 220.88639552 298.60794597 218.63720703 302.88330078 C217.57097174 304.91305917 216.50921374 306.94517782 215.45263672 308.97998047 C214.02508701 311.72404303 212.57809567 314.45689851 211.125 317.1875 C210.70951904 317.99413086 210.29403809 318.80076172 209.8659668 319.63183594 C206.91813963 325.09678418 203.17962445 330.66286472 196.98608398 332.64428711 C189.36406133 334.00941151 180.61032871 334.31694936 174 330 C167.82881932 324.81449401 164.7136114 317.79682033 161.30078125 310.68359375 C158.71584152 305.33508493 155.8628777 300.14110934 153 294.9375 C151.96352414 293.0481867 150.9270655 291.15886395 149.890625 289.26953125 C149.39626953 288.36928223 148.90191406 287.4690332 148.39257812 286.54150391 C143.85067932 278.25237934 139.43050235 269.91521924 135.25 261.4375 C131.52775233 253.88992126 127.49335516 246.52690686 123.43383789 239.15649414 C120.04656116 232.98418291 116.83267808 226.75336347 113.73535156 220.43164062 C111.22874309 215.35503211 108.435008 210.49309126 105.54296875 205.62890625 C100 196.18481013 100 196.18481013 100 192 C99.34 192 98.68 192 98 192 C97.35998047 190.70255859 97.35998047 190.70255859 96.70703125 189.37890625 C88.54659636 172.91035654 80.23758303 156.48901387 71.09960938 140.53857422 C68.23302585 135.503576 65.64678685 130.35729787 63.09741211 125.15600586 C60.09892466 119.08687684 56.83147641 113.18151736 53.50024414 107.28955078 C51.51599501 103.77192675 49.56412224 100.24087737 47.703125 96.65625 C47.37473633 96.02525391 47.04634766 95.39425781 46.70800781 94.74414062 C46 93 46 93 46 90 C45.34 90 44.68 90 44 90 C43.52691406 88.9584375 43.05382813 87.916875 42.56640625 86.84375 C38.41805974 77.81586978 33.94917287 69.0915525 28.98046875 60.48828125 C24 51.78619604 24 51.78619604 24 48 C23.34 48 22.68 48 22 48 C21.52691406 47.04222656 21.05382812 46.08445313 20.56640625 45.09765625 C19.89895546 43.75234707 19.23094102 42.40731744 18.5625 41.0625 C18.03366211 39.99769409 18.03366211 39.99769409 17.49414062 38.91137695 C15.53785782 34.99667005 13.53956026 31.11119851 11.46484375 27.2578125 C11.05355225 26.49331787 10.64226074 25.72882324 10.21850586 24.94116211 C9.41618257 23.45724179 8.60852911 21.97618907 7.79516602 20.49829102 C5 15.32751112 5 15.32751112 5 12 C4.34 12 3.68 12 3 12 C0.54675603 7.70682305 -0.16494341 4.90706652 0 0 Z " fill="#28509A" transform="translate(0,0)"/>
<path d="M0 0 C2.02594441 0.00747065 4.05189609 0.01315969 6.07785034 0.01715088 C11.3814325 0.03234228 16.68456875 0.07156757 21.98797607 0.1159668 C27.41119354 0.15706025 32.83448384 0.17519184 38.2578125 0.1953125 C48.87779889 0.23806856 59.49745595 0.30624043 70.1171875 0.390625 C70.19790693 4.57254337 70.11062939 7.14757413 67.9921875 10.7890625 C67.53706787 11.58965088 67.08194824 12.39023926 66.61303711 13.21508789 C66.11940674 14.05676514 65.62577637 14.89844238 65.1171875 15.765625 C64.09519933 17.56240684 63.07569119 19.36060142 62.05859375 21.16015625 C61.55473145 22.04783691 61.05086914 22.93551758 60.53173828 23.85009766 C58.59336342 27.33141087 56.80607013 30.87496759 55.0546875 34.453125 C50.58911803 43.52779601 45.85524462 52.45594947 41.1171875 61.390625 C39.98479107 63.52917257 38.85274162 65.66790357 37.72070312 67.80664062 C36.98420236 69.19751906 36.24722204 70.58814365 35.50976562 71.97851562 C33.55725523 75.66127166 31.6138962 79.3485184 29.68359375 83.04296875 C25.15207201 91.70752941 20.51993574 100.29784521 15.73120117 108.82299805 C12.65148124 114.34100658 9.80270012 119.94717925 7.02172852 125.62036133 C4.50734042 130.71096151 1.75304057 135.6275703 -1.09863281 140.53540039 C-3.36214728 144.44191416 -5.43454918 148.39556326 -7.41796875 152.44921875 C-12.32711694 162.30678831 -17.47731468 172.05519679 -23.0078125 181.578125 C-26.08301783 186.89541231 -28.88688377 192.28833147 -31.60205078 197.79321289 C-38.90172948 212.56637216 -46.51592908 227.19153166 -54.8828125 241.390625 C-59.44877937 240.91945354 -59.44877937 240.91945354 -61.3684082 238.58056641 C-61.76116943 237.80890137 -62.15393066 237.03723633 -62.55859375 236.2421875 C-62.99365234 235.40171875 -63.42871094 234.56125 -63.87695312 233.6953125 C-64.31201172 232.81101563 -64.74707031 231.92671875 -65.1953125 231.015625 C-65.8769043 229.70078125 -65.8769043 229.70078125 -66.57226562 228.359375 C-69.8828125 221.8478031 -69.8828125 221.8478031 -69.8828125 218.390625 C-70.5428125 218.390625 -71.2028125 218.390625 -71.8828125 218.390625 C-72.35589844 217.43285156 -72.82898438 216.47507813 -73.31640625 215.48828125 C-76.91219382 208.23775877 -80.57174294 201.03059103 -84.3828125 193.890625 C-87.61463877 187.83439765 -90.73263955 181.7335656 -93.77758789 175.58154297 C-97.70313678 167.68351458 -101.8443758 159.89832516 -105.97827148 152.10791016 C-108.00263299 148.26462842 -108.24593607 145.81619355 -107.8828125 141.390625 C-106.63993411 138.88472898 -105.42285047 136.75321004 -103.8828125 134.453125 C-100.51961786 129.16344669 -97.49213857 123.84436455 -94.7578125 118.203125 C-92.45961451 113.48538508 -90.07929133 108.8989912 -87.3828125 104.390625 C-84.2794467 99.19478476 -81.54688028 93.87271013 -78.8984375 88.43554688 C-76.07087208 82.65514415 -72.98977561 77.02487582 -69.8828125 71.390625 C-60.99088735 55.240509 -60.99088735 55.240509 -52.61645508 38.8190918 C-50.12779909 33.77833707 -47.35970658 28.95277723 -44.46484375 24.13671875 C-42.94659578 21.50134017 -41.65688099 18.83791506 -40.3828125 16.078125 C-36.76377868 8.78149694 -31.89798244 4.10207477 -24.26348877 1.19787598 C-16.36795277 -0.6874507 -8.0679695 -0.08765042 0 0 Z " fill="#296DAD" transform="translate(305.8828125,-0.390625)"/>
<path d="M0 0 C0.88815903 -0.00014603 1.77631805 -0.00029205 2.69139099 -0.0004425 C5.6240382 0.00025359 8.55662171 0.00803182 11.48925781 0.01586914 C13.52378301 0.0177344 15.55830866 0.01915779 17.59283447 0.02015686 C22.94563031 0.02397355 28.29839898 0.03379663 33.65118408 0.04486084 C39.114132 0.05509317 44.57708432 0.05965839 50.04003906 0.06469727 C60.75749891 0.07541963 71.4749386 0.09248591 82.19238281 0.11352539 C82.27985826 4.40461977 82.12289618 6.98125623 79.96191406 10.72290039 C79.48818359 11.56079102 79.01445312 12.39868164 78.52636719 13.26196289 C78.02427734 14.12047852 77.5221875 14.97899414 77.00488281 15.86352539 C76.03026481 17.56552853 75.05760468 19.26865432 74.08691406 20.97290039 C73.60818848 21.81014648 73.12946289 22.64739258 72.63623047 23.51000977 C70.34571479 27.64021931 68.25906223 31.86784085 66.19238281 36.11352539 C65.40416463 33.81809112 65.05680237 32.53343557 65.81323242 30.19067383 C66.15362549 29.54130859 66.49401855 28.89194336 66.84472656 28.22290039 C67.20888672 27.51391602 67.57304687 26.80493164 67.94824219 26.07446289 C68.33818359 25.34485352 68.728125 24.61524414 69.12988281 23.86352539 C69.51595703 23.11844727 69.90203125 22.37336914 70.29980469 21.60571289 C71.25328447 19.76938145 72.22143959 17.94068332 73.19238281 16.11352539 C73.85238281 16.11352539 74.51238281 16.11352539 75.19238281 16.11352539 C75.37414062 15.10032227 75.37414062 15.10032227 75.55957031 14.06665039 C75.72714844 13.17461914 75.89472656 12.28258789 76.06738281 11.36352539 C76.22980469 10.48180664 76.39222656 9.60008789 76.55957031 8.69165039 C77.16300014 6.23323257 78.02742642 4.34394011 79.19238281 2.11352539 C67.87388548 2.17486299 56.55561632 2.25206022 45.23736668 2.3492403 C39.98125824 2.3938773 34.72522612 2.43314813 29.46899414 2.45996094 C24.391935 2.48606044 19.31517061 2.52650981 14.2382946 2.57671165 C12.30596534 2.59333547 10.37358515 2.60487758 8.44119453 2.6111393 C5.72456432 2.62082933 3.00868059 2.64894651 0.29223633 2.68115234 C-0.89352493 2.67899971 -0.89352493 2.67899971 -2.10324097 2.67680359 C-8.80476945 2.78841729 -15.25348758 3.91613899 -20.43652344 8.37524414 C-21.07460938 9.17575195 -21.71269531 9.97625977 -22.37011719 10.80102539 C-23.03140625 11.60926758 -23.69269531 12.41750977 -24.37402344 13.25024414 C-24.84710938 13.86512695 -25.32019531 14.48000977 -25.80761719 15.11352539 C-26.13761719 14.45352539 -26.46761719 13.79352539 -26.80761719 13.11352539 C-18.97545223 3.30546471 -12.58429233 -0.05408494 0 0 Z " fill="#ADD8E8" transform="translate(293.8076171875,-0.113525390625)"/>
<path d="M0 0 C2.475 0.495 2.475 0.495 5 1 C5.04125 2.093125 5.0825 3.18625 5.125 4.3125 C5.90905863 10.78098371 9.48459022 16.84596287 13.5078125 21.890625 C15.10952243 24.15482228 16.10429368 26.47909008 17.15185547 29.03759766 C18.73402994 32.69836864 20.67370731 36.17798145 22.5625 39.6875 C23.35584326 41.17037261 24.14882419 42.65343914 24.94140625 44.13671875 C25.28888916 44.78342529 25.63637207 45.43013184 25.99438477 46.09643555 C26.49216431 47.03869995 26.49216431 47.03869995 27 48 C27.3724585 48.67780518 27.74491699 49.35561035 28.12866211 50.05395508 C29 52 29 52 29 55 C29.66 55 30.32 55 31 55 C31.25652344 55.52464844 31.51304687 56.04929687 31.77734375 56.58984375 C39.99346256 73.53396871 39.99346256 73.53396871 50.00390625 89.43359375 C51 91 51 91 51 93 C51.66 93 52.32 93 53 93 C53 93.66 53 94.32 53 95 C60.56305512 97.24090522 68.05563618 98.72266781 75.4375 95.1875 C77.49328993 94.06733054 78.95776252 93.04327019 80.59765625 91.36328125 C82 90 82 90 84 90 C82.5039904 93.80802445 80.33936849 95.69424557 77 98 C70.6468204 100.18435164 61.39335596 100.25482541 55.0625 98 C46.9913957 92.72907474 43.3561514 85.13604098 39.30078125 76.68359375 C36.71584152 71.33508493 33.8628777 66.14110934 31 60.9375 C29.96352414 59.0481867 28.9270655 57.15886395 27.890625 55.26953125 C27.1490918 53.91915771 27.1490918 53.91915771 26.39257812 52.54150391 C21.4387895 43.50066597 16.65336707 34.39300123 12.08691406 25.15039062 C9.1183384 19.16635164 5.9853261 13.27433703 2.79321289 7.40673828 C0 2.21502574 0 2.21502574 0 0 Z " fill="#D8E8EF" transform="translate(122,234)"/>
<path d="M0 0 C0.33 0.66 0.66 1.32 1 2 C0.06740416 4.03108614 -1.05505904 5.9061366 -2.1875 7.83203125 C-3.65824817 11.75638335 -2.23245078 14.48160293 -0.57421875 18.1796875 C0.04801999 19.41483988 0.67745596 20.64638227 1.3125 21.875 C1.83384521 22.90016724 1.83384521 22.90016724 2.36572266 23.94604492 C3.56847361 26.30193011 4.7828094 28.65154354 6 31 C6.45906738 31.88671387 6.91813477 32.77342773 7.39111328 33.68701172 C13.11214948 44.72057566 18.88957267 55.72485931 24.70263672 66.71020508 C25.80808561 68.80355726 26.90503402 70.9011493 28 73 C28.38542969 73.72719238 28.77085937 74.45438477 29.16796875 75.20361328 C29.53535156 75.91114746 29.90273437 76.61868164 30.28125 77.34765625 C30.61189453 77.97808838 30.94253906 78.60852051 31.28320312 79.25805664 C32 81 32 81 32 84 C32.66 84 33.32 84 34 84 C34.54269531 85.09699219 35.08539063 86.19398438 35.64453125 87.32421875 C36.3670797 88.77869939 37.08974196 90.2331235 37.8125 91.6875 C38.16892578 92.40873047 38.52535156 93.12996094 38.89257812 93.87304688 C40.426835 96.95563638 41.97001535 99.95073476 43.76171875 102.89453125 C45 105 45 105 45 107 C45.66 107 46.32 107 47 107 C47.15662109 106.18015625 47.15662109 106.18015625 47.31640625 105.34375 C48.15592793 102.46538994 49.46952547 100.11292287 50.9375 97.5 C52.69228371 94.36122225 54.42217868 91.2318659 56 88 C56.66 88 57.32 88 58 88 C56.56347895 92.91441412 54.45840385 97.00238358 51.875 101.375 C51.50246094 102.01566406 51.12992188 102.65632813 50.74609375 103.31640625 C49.83565998 104.88048477 48.91851809 106.44065534 48 108 C43.43403313 107.52882854 43.43403313 107.52882854 41.5144043 105.18994141 C41.12164307 104.41827637 40.72888184 103.64661133 40.32421875 102.8515625 C39.88916016 102.01109375 39.45410156 101.170625 39.00585938 100.3046875 C38.57080078 99.42039062 38.13574219 98.53609375 37.6875 97.625 C37.0059082 96.31015625 37.0059082 96.31015625 36.31054688 94.96875 C33 88.4571781 33 88.4571781 33 85 C32.34 85 31.68 85 31 85 C30.52691406 84.04222656 30.05382812 83.08445312 29.56640625 82.09765625 C25.97061868 74.84713377 22.31106956 67.63996603 18.5 60.5 C15.26817373 54.44377265 12.15017295 48.3429406 9.10522461 42.19091797 C5.17967572 34.29288958 1.0384367 26.50770016 -3.09545898 18.71728516 C-5.13290978 14.84915319 -5.4318161 12.46209974 -5 8 C-3.57693865 5.14890156 -1.87232805 2.57445107 0 0 Z " fill="#D6DCE6" transform="translate(203,133)"/>
<path d="M0 0 C11.56176612 -0.09291128 23.1234426 -0.1638721 34.68550682 -0.20724869 C40.05495825 -0.22807324 45.42415319 -0.25629689 50.79345703 -0.30175781 C55.98061246 -0.34539886 61.16752203 -0.36917567 66.35484695 -0.37950897 C68.32829276 -0.38686765 70.30172597 -0.40123711 72.27506638 -0.42292023 C95.4165493 -0.66695673 95.4165493 -0.66695673 103.125 6.75 C103.74375 7.4925 104.3625 8.235 105 9 C104.67 9.66 104.34 10.32 104 11 C103.5153125 10.59007812 103.030625 10.18015625 102.53125 9.7578125 C101.8609375 9.21898437 101.190625 8.68015625 100.5 8.125 C99.8503125 7.59132813 99.200625 7.05765625 98.53125 6.5078125 C92.53693862 2.93712702 85.8992948 2.69985371 79.10546875 2.68115234 C78.2557399 2.67110672 77.40601105 2.6610611 76.53053284 2.65071106 C73.74952815 2.62006426 70.96861891 2.60289581 68.1875 2.5859375 C66.24836415 2.56721094 64.30923632 2.54763643 62.37011719 2.5272522 C57.28705591 2.47608221 52.20396826 2.43637575 47.12078857 2.39910889 C41.92551225 2.35897405 36.73034421 2.30792508 31.53515625 2.2578125 C21.35684707 2.16123253 11.17847653 2.07677071 1 2 C2.53604696 5.14191424 4.05731159 8.08596738 6 11 C5.625 13.1875 5.625 13.1875 5 15 C5 14.01 5 13.02 5 12 C4.34 12 3.68 12 3 12 C0.54675603 7.70682305 -0.16494341 4.90706652 0 0 Z " fill="#8B8DB6" transform="translate(0,0)"/>
<path d="M0 0 C2.81924633 2.46269459 4.15901056 5.07228918 5.75 8.4375 C7.88327977 12.86445652 10.2105979 17.02018247 12.8125 21.1875 C18.10955393 30.39202197 18.10955393 30.39202197 17 36 C15.13594614 40.69129665 12.80264098 45.05041093 10.37304688 49.46972656 C8.84807082 52.2799776 7.3816447 55.11628122 5.921875 57.9609375 C-0.48550947 70.44109965 -7.09192861 82.7900228 -14 95 C-15 92 -15 92 -13.33984375 88.41015625 C-12.54862582 86.95569422 -11.74721706 85.50674509 -10.9375 84.0625 C-10.10303541 82.53447141 -9.26970864 81.00582092 -8.4375 79.4765625 C-8.02371094 78.72149414 -7.60992187 77.96642578 -7.18359375 77.18847656 C-4.66102367 72.52421951 -2.33811606 67.75875386 0 63 C0.66 63 1.32 63 2 63 C2.144375 62.236875 2.28875 61.47375 2.4375 60.6875 C3 58 3 58 4 55 C4.66 55 5.32 55 6 55 C6 53.68 6 52.36 6 51 C6.66 51 7.32 51 8 51 C8.12117188 50.44699219 8.24234375 49.89398438 8.3671875 49.32421875 C9.0788298 46.71047081 10.09179845 44.31602683 11.125 41.8125 C13.06368174 36.53223592 13.55696876 32.43282718 12 27 C10.68134288 24.35774595 10.68134288 24.35774595 9 22 C6.86803918 17.39496463 5.2964061 12.88645375 4 8 C3.34 8 2.68 8 2 8 C0.23537317 4.91190305 0 3.76687864 0 0 Z " fill="#E5F0F3" transform="translate(221,229)"/>
<path d="M0 0 C1 3 1 3 -0.37109375 5.79296875 C-1.05300781 6.91316406 -1.73492187 8.03335938 -2.4375 9.1875 C-5.44791121 14.24245742 -8.23618276 19.33575272 -10.8125 24.625 C-14.3930276 31.93577315 -18.27251676 39.06238087 -22.23168945 46.17431641 C-24.58662296 50.40732109 -26.87877807 54.64480015 -29 59 C-29.96772222 56.4291235 -30.1658888 55.3769587 -29.0390625 52.81640625 C-28.57242187 52.07261719 -28.10578125 51.32882813 -27.625 50.5625 C-25.62473958 47.34979122 -24.56942738 44.75424795 -24 41 C-23.34 41 -22.68 41 -22 41 C-21.89558594 40.46246094 -21.79117187 39.92492187 -21.68359375 39.37109375 C-20.82264511 36.38483189 -19.48669882 33.82384391 -18.0625 31.0625 C-16.5602075 28.14281113 -15.12102419 25.33199242 -13.99609375 22.24609375 C-13 20 -13 20 -10 18 C-9.67 17.01 -9.34 16.02 -9 15 C-8.34 15 -7.68 15 -7 15 C-6.855625 14.236875 -6.71125 13.47375 -6.5625 12.6875 C-6 10 -6 10 -5 7 C-4.34 7 -3.68 7 -3 7 C-2.690625 6.030625 -2.38125 5.06125 -2.0625 4.0625 C-1 1 -1 1 0 0 Z " fill="#95BFD9" transform="translate(344,62)"/>
<path d="M0 0 C2.82764638 2.48727667 4.30112766 5.19223508 6.00390625 8.53125 C6.5747998 9.64274414 7.14569336 10.75423828 7.73388672 11.89941406 C8.34344293 13.0996 8.95298029 14.29979552 9.5625 15.5 C10.19220411 16.72918307 10.82258042 17.95802199 11.45361328 19.18652344 C12.71620286 21.64489248 13.97669285 24.1043193 15.23583984 26.56445312 C17.58634706 31.14185938 19.97362774 35.69912424 22.375 40.25 C22.76937256 41.00023437 23.16374512 41.75046875 23.57006836 42.5234375 C25.48510204 46.15995355 27.42098069 49.78337135 29.390625 53.390625 C29.95644287 54.43234863 29.95644287 54.43234863 30.53369141 55.49511719 C31.23877814 56.79045774 31.94904104 58.08300017 32.66552734 59.37207031 C34.17543077 62.14928443 35 63.78251161 35 67 C35.66 67 36.32 67 37 67 C37.33 68.65 37.66 70.3 38 72 C36.0625 71.4375 36.0625 71.4375 34 70 C33.25 66.375 33.25 66.375 33 63 C32.34 63 31.68 63 31 63 C28.03725221 60.03725221 27.35157824 56.92411226 26.47265625 52.97265625 C25.88915219 50.5373707 25.00242204 48.29125037 24 46 C23.34 46 22.68 46 22 46 C21.6146106 45.17592651 21.6146106 45.17592651 21.22143555 44.33520508 C20.04621961 41.82633199 18.86689925 39.3194091 17.6875 36.8125 C17.28337891 35.94818359 16.87925781 35.08386719 16.46289062 34.19335938 C14.82579673 30.71952598 13.21541201 27.35151111 11.20703125 24.07421875 C10 22 10 22 10 19 C9.34 19 8.68 19 8 19 C7.4121875 17.576875 7.4121875 17.576875 6.8125 16.125 C5.06899205 12.02607987 3.03986648 8.08859237 0.98828125 4.13671875 C0 2 0 2 0 0 Z " fill="#DCE2EC" transform="translate(165,123)"/>
<path d="M0 0 C0.33 0.66 0.66 1.32 1 2 C0.21484375 3.96435547 0.21484375 3.96435547 -1.0625 6.3671875 C-1.5263208 7.24705322 -1.9901416 8.12691895 -2.46801758 9.03344727 C-2.97357178 9.97115967 -3.47912598 10.90887207 -4 11.875 C-4.50748779 12.83011475 -5.01497559 13.78522949 -5.5378418 14.76928711 C-8.70103489 20.68902731 -11.98767312 26.50789848 -15.4296875 32.26953125 C-18.18513963 37.06072786 -20.59280287 42.02688945 -23 47 C-23.33 47 -23.66 47 -24 47 C-24.20086443 43.28400809 -24.1519437 42.22791555 -22 39 C-21.34 39 -20.68 39 -20 39 C-19.938125 38.21625 -19.87625 37.4325 -19.8125 36.625 C-18.6967665 31.64711207 -16.39693773 27.47546306 -14 23 C-13.34 23 -12.68 23 -12 23 C-11.87238281 22.41863281 -11.74476563 21.83726562 -11.61328125 21.23828125 C-9.57821441 13.81093539 -4.7635591 5.95444888 0 0 Z " fill="#CBDBE7" transform="translate(313,121)"/>
<path d="M0 0 C2.81924633 2.46269459 4.15901056 5.07228918 5.75 8.4375 C7.88327977 12.86445652 10.2105979 17.02018247 12.8125 21.1875 C15.56708767 25.86845856 18.07168612 30.42958753 17 36 C14.5625 38.5625 14.5625 38.5625 12 40 C12.17789063 39.05640625 12.17789063 39.05640625 12.359375 38.09375 C13.37848541 31.32685688 12.4552247 27.77481611 9 22 C6.89227742 17.37922357 5.29787356 12.89198496 4 8 C3.34 8 2.68 8 2 8 C0.23537317 4.91190305 0 3.76687864 0 0 Z " fill="#DBE8EE" transform="translate(221,229)"/>
<path d="M0 0 C5.18853619 5.98677253 9.08838958 12.74991374 12.1315918 20.03662109 C13.84699672 23.91496981 15.88431811 27.63275718 17.875 31.375 C18.50728516 32.57382813 18.50728516 32.57382813 19.15234375 33.796875 C21.70212045 38.61571903 24.33174614 43.37150161 27.08642578 48.07666016 C28 50 28 50 28 53 C27.34 53 26.68 53 26 53 C25.52691406 51.9584375 25.05382812 50.916875 24.56640625 49.84375 C20.41805974 40.81586978 15.94917287 32.0915525 10.98046875 23.48828125 C6 14.78619604 6 14.78619604 6 11 C5.34 11 4.68 11 4 11 C3.32591692 9.73308493 2.66099503 8.46129251 2 7.1875 C1.62875 6.47980469 1.2575 5.77210937 0.875 5.04296875 C0 3 0 3 0 0 Z " fill="#D8D8E3" transform="translate(18,37)"/>
<path d="M0 0 C5.05604903 4.5143295 7.57967066 9.94832176 10.109375 16.09765625 C11.12611923 18.26938625 12.34542843 20.22166815 13.625 22.25 C16.74524371 27.33718214 19.358385 32.62491953 21.9375 38 C22.3514502 38.84981445 22.76540039 39.69962891 23.19189453 40.57519531 C23.57071777 41.37538086 23.94954102 42.17556641 24.33984375 43 C24.85599243 44.0828125 24.85599243 44.0828125 25.38256836 45.1875 C25.5863208 45.785625 25.79007324 46.38375 26 47 C25.67 47.66 25.34 48.32 25 49 C19.69664944 39.58842014 14.49303892 30.17508539 9.73828125 20.47265625 C7.42742746 15.85614159 4.97577367 11.31938418 2.48779297 6.79614258 C0 2.21502307 0 2.21502307 0 0 Z " fill="#DBDFE7" transform="translate(61,119)"/>
<path d="M0 0 C-1.4960096 3.80802445 -3.66063151 5.69424557 -7 8 C-13.48028107 10.22805169 -22.81242526 10.26719689 -29.1875 7.75 C-31.90386422 6.05981782 -33.39226962 4.74259888 -35 2 C-33.68 2.33 -32.36 2.66 -31 3 C-31 3.66 -31 4.32 -31 5 C-23.43694488 7.24090522 -15.94436382 8.72266781 -8.5625 5.1875 C-6.50671007 4.06733054 -5.04223748 3.04327019 -3.40234375 1.36328125 C-2 0 -2 0 0 0 Z " fill="#DDEAF1" transform="translate(206,324)"/>
<path d="M0 0 C0.33 0 0.66 0 1 0 C1 1.98 1 3.96 1 6 C0.34 6 -0.32 6 -1 6 C-1.268125 7.134375 -1.53625 8.26875 -1.8125 9.4375 C-2.204375 10.613125 -2.59625 11.78875 -3 13 C-3.99 13.33 -4.98 13.66 -6 14 C-6.33 15.65 -6.66 17.3 -7 19 C-7.66 19 -8.32 19 -9 19 C-9.0825 19.7425 -9.165 20.485 -9.25 21.25 C-10.1396946 24.51221354 -11.48503749 25.80954878 -14 28 C-12.32337853 23.55781735 -10.25504121 19.36132731 -8.125 15.125 C-7.78597656 14.44308594 -7.44695312 13.76117188 -7.09765625 13.05859375 C-4.87233989 8.61642232 -2.49996986 4.29367021 0 0 Z " fill="#D5E7F3" transform="translate(250,45)"/>
<path d="M0 0 C1 3 1 3 -0.40625 5.86328125 C-1.09540604 7.01829326 -1.79397488 8.16772172 -2.5 9.3125 C-6.70843569 16.37585759 -10.40444662 23.60664336 -14 31 C-15 28 -15 28 -13.75 25.25 C-13.1725 24.1775 -12.595 23.105 -12 22 C-10.96180416 19.68151781 -9.983799 17.34237857 -9 15 C-8.34 15 -7.68 15 -7 15 C-6.855625 14.236875 -6.71125 13.47375 -6.5625 12.6875 C-6 10 -6 10 -5 7 C-4.34 7 -3.68 7 -3 7 C-2.690625 6.030625 -2.38125 5.06125 -2.0625 4.0625 C-1 1 -1 1 0 0 Z " fill="#DDEDF2" transform="translate(344,62)"/>
<path d="M0 0 C0.33 1.32 0.66 2.64 1 4 C0.34 4 -0.32 4 -1 4 C-1.14179688 4.58652344 -1.28359375 5.17304688 -1.4296875 5.77734375 C-3.71431966 14.68114991 -8.14836603 23.71237248 -15 30 C-13.47445351 24.80822081 -11.18604789 20.29541693 -8.625 15.5625 C-8.23828125 14.83740234 -7.8515625 14.11230469 -7.453125 13.36523438 C-5.04360966 8.86558577 -2.55112399 4.42078334 0 0 Z " fill="#CCE7F3" transform="translate(266,15)"/>
<path d="M0 0 C0.33 0.66 0.66 1.32 1 2 C-0.11076255 4.54963653 -1.27973354 6.97585309 -2.5625 9.4375 C-2.92730469 10.15164062 -3.29210937 10.86578125 -3.66796875 11.6015625 C-6.67464092 17.45721424 -9.78673376 23.25506945 -13 29 C-13.78821819 26.70456573 -14.13558044 25.41991018 -13.37915039 23.07714844 C-13.03875732 22.4277832 -12.69836426 21.77841797 -12.34765625 21.109375 C-11.98349609 20.40039062 -11.61933594 19.69140625 -11.24414062 18.9609375 C-10.85419922 18.23132813 -10.46425781 17.50171875 -10.0625 16.75 C-9.67642578 16.00492188 -9.29035156 15.25984375 -8.89257812 14.4921875 C-7.93909834 12.65585606 -6.97094323 10.82715793 -6 9 C-5.34 9 -4.68 9 -4 9 C-3.855625 8.4225 -3.71125 7.845 -3.5625 7.25 C-3.2840625 6.13625 -3.2840625 6.13625 -3 5 C-2.855625 4.278125 -2.71125 3.55625 -2.5625 2.8125 C-2.376875 2.214375 -2.19125 1.61625 -2 1 C-1.34 0.67 -0.68 0.34 0 0 Z " fill="#D6EDF2" transform="translate(373,7)"/>
<path d="M0 0 C14.85 0 29.7 0 45 0 C44.67 1.98 44.34 3.96 44 6 C43.01 6.33 42.02 6.66 41 7 C41.66 5.02 42.32 3.04 43 1 C28.81 1 14.62 1 0 1 C0 0.67 0 0.34 0 0 Z " fill="#56B3D8" transform="translate(330,1)"/>
<path d="M0 0 C0.66 0.33 1.32 0.66 2 1 C-6.261959 19.04100228 -6.261959 19.04100228 -11 26 C-12 23 -12 23 -11.14453125 20.8359375 C-10.48517578 19.61777344 -10.48517578 19.61777344 -9.8125 18.375 C-7.6190437 14.22571182 -5.68565832 10.0516578 -3.89453125 5.71484375 C-3 4 -3 4 -1 3 C-0.67 2.01 -0.34 1.02 0 0 Z " fill="#D6EAF0" transform="translate(357,36)"/>
<path d="M0 0 C2.475 0.495 2.475 0.495 5 1 C5.061875 2.134375 5.12375 3.26875 5.1875 4.4375 C5.71438976 8.99306993 7.59207569 12.20033913 10.0390625 16.01953125 C11 18 11 18 10 21 C8.32666842 17.87852455 6.66248284 14.75226502 5 11.625 C4.52304688 10.73554688 4.04609375 9.84609375 3.5546875 8.9296875 C3.10351562 8.07890625 2.65234375 7.228125 2.1875 6.3515625 C1.76855469 5.56604004 1.34960938 4.78051758 0.91796875 3.97119141 C0 2 0 2 0 0 Z " fill="#E9F0F4" transform="translate(122,234)"/>
<path d="M0 0 C0.66 0.33 1.32 0.66 2 1 C1.65066406 1.60328125 1.30132812 2.2065625 0.94140625 2.828125 C0.48636719 3.62734375 0.03132812 4.4265625 -0.4375 5.25 C-0.88996094 6.03890625 -1.34242188 6.8278125 -1.80859375 7.640625 C-2.90117963 9.80430327 -3.42644688 11.66722934 -4 14 C-4.99 15.485 -4.99 15.485 -6 17 C-6.66 17 -7.32 17 -8 17 C-7.54636829 15.41531323 -7.08688548 13.83230076 -6.625 12.25 C-6.36976563 11.36828125 -6.11453125 10.4865625 -5.8515625 9.578125 C-5.0790066 7.23919428 -4.16374324 5.16557438 -3 3 C-2.34 3 -1.68 3 -1 3 C-0.67 2.01 -0.34 1.02 0 0 Z " fill="#335198" transform="translate(219,108)"/>
<path d="M0 0 C0.66 0 1.32 0 2 0 C1.4462522 5.10454793 -1.02592796 8.96575557 -3.5625 13.3125 C-3.98724609 14.05306641 -4.41199219 14.79363281 -4.84960938 15.55664062 C-5.89351653 17.37468118 -6.94592192 19.18783748 -8 21 C-9.2077558 17.37673261 -8.54311128 16.35853631 -7 13 C-6.34 13 -5.68 13 -5 13 C-4.9175 12.34 -4.835 11.68 -4.75 11 C-3.75240209 7.00960837 -1.92833317 3.61450357 0 0 Z " fill="#D1D7E5" transform="translate(274,192)"/>
<path d="M0 0 C3 1 3 1 4.16796875 2.7421875 C4.50441406 3.44601563 4.84085938 4.14984375 5.1875 4.875 C5.53167969 5.57367188 5.87585938 6.27234375 6.23046875 6.9921875 C7 9 7 9 7 12 C7.66 12 8.32 12 9 12 C9.33 13.65 9.66 15.3 10 17 C8.0625 16.4375 8.0625 16.4375 6 15 C5.25 11.375 5.25 11.375 5 8 C4.34 8 3.68 8 3 8 C0.25624329 5.04518508 0 4.22528092 0 0 Z " fill="#B5C8DD" transform="translate(193,178)"/>
<path d="M0 0 C2.61724095 2.36797991 4.32861729 4.89600354 6 8 C6 8.66 6 9.32 6 10 C6.66 10 7.32 10 8 10 C8.3125 12.75 8.3125 12.75 8 16 C5.5 18.375 5.5 18.375 3 20 C3.11859375 19.3709375 3.2371875 18.741875 3.359375 18.09375 C4.24313638 12.22557441 4.0000508 8.70516878 0.91015625 3.59375 C0 2 0 2 0 0 Z " fill="#7AAED3" transform="translate(230,249)"/>
<path d="M0 0 C4.01634066 3.46330053 6.02328912 7.44613754 8.3125 12.125 C8.68439453 12.85332031 9.05628906 13.58164062 9.43945312 14.33203125 C10.36110629 16.18906799 11.18865541 18.09218713 12 20 C11.67 20.66 11.34 21.32 11 22 C9.72710095 19.79283537 8.4566395 17.58432515 7.1875 15.375 C6.83107422 14.75753906 6.47464844 14.14007813 6.10742188 13.50390625 C0 2.85794151 0 2.85794151 0 0 Z " fill="#D6D4E1" transform="translate(6,15)"/>
<path d="M0 0 C3.12799173 2.69654459 4.70974708 5.21729387 6.203125 9.05859375 C7.37445284 11.91226991 8.858775 14.59100173 10.328125 17.30078125 C10.54984375 17.86152344 10.7715625 18.42226563 11 19 C10.67 19.66 10.34 20.32 10 21 C8.7069894 18.75076296 7.41555023 16.50064815 6.125 14.25 C5.76019531 13.61578125 5.39539063 12.9815625 5.01953125 12.328125 C0 3.56676136 0 3.56676136 0 0 Z " fill="#D0E0EA" transform="translate(133,254)"/>
<path d="M0 0 C-1.7634375 0.7425 -1.7634375 0.7425 -3.5625 1.5 C-7.9312942 3.64947778 -10.54697966 6.52284195 -13.5546875 10.29296875 C-15 12 -15 12 -17 13 C-14.48712034 7.47909198 -10.55278278 2.45044476 -5.25 -0.5625 C-3 -1 -3 -1 0 0 Z " fill="#40A3CF" transform="translate(284,4)"/>
<path d="M0 0 C0.33 0.66 0.66 1.32 1 2 C0.28735352 3.78759766 0.28735352 3.78759766 -0.87109375 5.9140625 C-1.28037109 6.67460938 -1.68964844 7.43515625 -2.11132812 8.21875 C-2.54896484 9.0128125 -2.98660156 9.806875 -3.4375 10.625 C-3.87126953 11.42679688 -4.30503906 12.22859375 -4.75195312 13.0546875 C-5.82756988 15.04044151 -6.91047213 17.0218546 -8 19 C-9.23740062 14.66909783 -8.34442242 12.99415087 -6.2578125 9.10546875 C-4.35405437 5.91874319 -2.22703375 2.96937833 0 0 Z " fill="#D7E5EC" transform="translate(313,121)"/>
<path d="M0 0 C0.66 0 1.32 0 2 0 C-0.2346041 7.02304146 -1.96510948 10.68936392 -8 15 C-8.99 14.67 -9.98 14.34 -11 14 C-8.74259377 11.66475218 -6.7194239 9.81294927 -4 8 C-2.78581167 6.0533929 -2.78581167 6.0533929 -1.8125 3.875 C-1.46832031 3.15054687 -1.12414062 2.42609375 -0.76953125 1.6796875 C-0.51558594 1.12539063 -0.26164063 0.57109375 0 0 Z " fill="#378EC8" transform="translate(208,314)"/>
<path d="M0 0 C0.33 0.66 0.66 1.32 1 2 C0.3190918 3.77172852 0.3190918 3.77172852 -0.80078125 5.87890625 C-1.20103516 6.63494141 -1.60128906 7.39097656 -2.01367188 8.16992188 C-2.44228516 8.95947266 -2.87089844 9.74902344 -3.3125 10.5625 C-3.72951172 11.35591797 -4.14652344 12.14933594 -4.57617188 12.96679688 C-7.73587828 18.86793914 -7.73587828 18.86793914 -10 20 C-9.67 18.02 -9.34 16.04 -9 14 C-8.34 14 -7.68 14 -7 14 C-7 13.01 -7 12.02 -7 11 C-6.34 11 -5.68 11 -5 11 C-4.9175 10.484375 -4.835 9.96875 -4.75 9.4375 C-3.67859775 5.95544268 -1.86476395 3.12799115 0 0 Z " fill="#DAE2EB" transform="translate(288,168)"/>
<path d="M0 0 C0.33 0.66 0.66 1.32 1 2 C-0.24125182 4.61161731 -1.5310524 7.10501786 -2.9375 9.625 C-3.32357422 10.33140625 -3.70964844 11.0378125 -4.10742188 11.765625 C-5.06448696 13.51433651 -6.03134031 15.25768432 -7 17 C-7.93084388 14.02018623 -8.11877362 13.28294875 -6.85546875 10.2734375 C-6.30503906 9.31695312 -5.75460937 8.36046875 -5.1875 7.375 C-4.64480469 6.41335937 -4.10210937 5.45171875 -3.54296875 4.4609375 C-2 2 -2 2 0 0 Z " fill="#DAEAEF" transform="translate(322,104)"/>
<path d="M0 0 C4.62435793 5.33579761 9.64617267 11.93726223 11 19 C10.34 19 9.68 19 9 19 C6.95830515 16.09451118 6 14.59857954 6 11 C5.34 11 4.68 11 4 11 C3.32591692 9.73308493 2.66099503 8.46129251 2 7.1875 C1.62875 6.47980469 1.2575 5.77210937 0.875 5.04296875 C0 3 0 3 0 0 Z " fill="#D0CFDD" transform="translate(18,37)"/>
<path d="M0 0 C2.99801938 3.53361325 5.23912566 7.04589616 7.3125 11.1875 C7.84488281 12.23292969 8.37726563 13.27835938 8.92578125 14.35546875 C9.28027344 15.22816406 9.63476562 16.10085937 10 17 C9.67 17.66 9.34 18.32 9 19 C8.67 17.68 8.34 16.36 8 15 C7.34 15 6.68 15 6 15 C4.66666667 12.33333333 3.33333333 9.66666667 2 7 C1.62617187 6.31421875 1.25234375 5.6284375 0.8671875 4.921875 C0 3 0 3 0 0 Z " fill="#D5D6E6" transform="translate(120,38)"/>
<path d="M0 0 C1.32 0.33 2.64 0.66 4 1 C4 1.99 4 2.98 4 4 C4.66 4.33 5.32 4.66 6 5 C7.04808041 6.97522846 8.0520411 8.97481509 9 11 C8.34 11.66 7.68 12.32 7 13 C1.62870159 4.738041 1.62870159 4.738041 0 0 Z " fill="#4987BF" transform="translate(127,242)"/>
<path d="M0 0 C0.33 0 0.66 0 1 0 C1 1.98 1 3.96 1 6 C0.34 6 -0.32 6 -1 6 C-1.28875 7.134375 -1.5775 8.26875 -1.875 9.4375 C-2.24625 10.613125 -2.6175 11.78875 -3 13 C-3.99 13.495 -3.99 13.495 -5 14 C-4.53411505 8.29290936 -3.06242216 4.84060277 0 0 Z " fill="#A7CBE4" transform="translate(250,45)"/>
<path d="M0 0 C5.7308977 1.10209571 10.12138952 3.67385754 14 8 C13.67 8.66 13.34 9.32 13 10 C12.45730469 9.57847656 11.91460937 9.15695312 11.35546875 8.72265625 C10.64003906 8.17480469 9.92460938 7.62695312 9.1875 7.0625 C8.47980469 6.51722656 7.77210937 5.97195312 7.04296875 5.41015625 C4.95874948 3.83143752 4.95874948 3.83143752 2 3 C2 2.34 2 1.68 2 1 C1.34 0.67 0.68 0.34 0 0 Z " fill="#D6D6E4" transform="translate(91,1)"/>
<path d="M0 0 C0.33 0 0.66 0 1 0 C0.07021792 8.05811138 0.07021792 8.05811138 -2 11 C-4.125 12.25 -4.125 12.25 -6 13 C-5.34 11.02 -4.68 9.04 -4 7 C-3.34 7 -2.68 7 -2 7 C-1.855625 6.401875 -1.71125 5.80375 -1.5625 5.1875 C-1.1127561 3.43849596 -0.57107659 1.71322977 0 0 Z " fill="#BAD0E0" transform="translate(303,137)"/>
<path d="M0 0 C7 8.20689655 7 8.20689655 7 13 C6.34 13 5.68 13 5 13 C4.15615325 11.58957044 3.32530504 10.17135868 2.5 8.75 C2.0359375 7.96109375 1.571875 7.1721875 1.09375 6.359375 C0 4 0 4 0 0 Z " fill="#C6CCDB" transform="translate(73,140)"/>
<path d="M0 0 C1 3 1 3 0.0625 5.1875 C-0.4634375 6.0846875 -0.4634375 6.0846875 -1 7 C-1.66 7 -2.32 7 -3 7 C-3.66 6.01 -4.32 5.02 -5 4 C-4.67 3.01 -4.34 2.02 -4 1 C-2.02 1.495 -2.02 1.495 0 2 C0 1.34 0 0.68 0 0 Z " fill="#3C3E8D" transform="translate(251,233)"/>
<path d="M0 0 C1.2077558 3.62326739 0.54311128 4.64146369 -1 8 C-1.66 8 -2.32 8 -3 8 C-3.12375 8.639375 -3.2475 9.27875 -3.375 9.9375 C-3.58125 10.618125 -3.7875 11.29875 -4 12 C-4.99 12.495 -4.99 12.495 -6 13 C-5.49396008 10.83125748 -5.00016187 9.00032373 -4 7 C-3.34 7 -2.68 7 -2 7 C-1.855625 6.030625 -1.71125 5.06125 -1.5625 4.0625 C-1 1 -1 1 0 0 Z " fill="#4D98C7" transform="translate(338,69)"/>
<path d="M0 0 C0 3.86695678 -1.41909971 6.5088452 -3 10 C-3.66 10 -4.32 10 -5 10 C-4.67 8.02 -4.34 6.04 -4 4 C-3.34 4 -2.68 4 -2 4 C-1.34 2.68 -0.68 1.36 0 0 Z " fill="#305FA0" transform="translate(229,90)"/>
<path d="M0 0 C2.475 0.495 2.475 0.495 5 1 C5 2.98 5 4.96 5 7 C3.29115995 5.37660195 1.62553283 3.70680947 0 2 C0 1.34 0 0.68 0 0 Z " fill="#7CA6CD" transform="translate(122,234)"/>
<path d="M0 0 C0.99 0 1.98 0 3 0 C3.66 1.98 4.32 3.96 5 6 C4.01 6 3.02 6 2 6 C0 3 0 3 0 0 Z " fill="#37428A" transform="translate(228,200)"/>
<path d="M0 0 C0.66 0 1.32 0 2 0 C0.84414715 3.91211733 -0.35534962 6.8745041 -3 10 C-3.3636198 5.75776898 -2.5393228 3.41831915 0 0 Z " fill="#6BACCF" transform="translate(208,314)"/>
<path d="M0 0 C2.5 2.3125 2.5 2.3125 5 5 C5 5.99 5 6.98 5 8 C4.34 8 3.68 8 3 8 C0.95830515 5.09451118 0 3.59857954 0 0 Z " fill="#3F4C93" transform="translate(223,190)"/>
<path d="M0 0 C0.6875 1.6875 0.6875 1.6875 1 4 C-0.4375 6.75 -0.4375 6.75 -2 9 C-2.6875 7.3125 -2.6875 7.3125 -3 5 C-1.5625 2.25 -1.5625 2.25 0 0 Z " fill="#5399C9" transform="translate(254,40)"/>
</svg>
